<?xml version="1.0" encoding="UTF-8" standalone="no"?>
<!-- Created with Inkscape (http://www.inkscape.org/) -->

<svg
   width="297mm"
   height="210mm"
   viewBox="0 0 297 210"
   version="1.1"
   id="svg1"
   inkscape:version="1.3.2 (091e20ef0f, 2023-11-25)"
   sodipodi:docname="sword.svg"
   xmlns:inkscape="http://www.inkscape.org/namespaces/inkscape"
   xmlns:sodipodi="http://sodipodi.sourceforge.net/DTD/sodipodi-0.dtd"
   xmlns="http://www.w3.org/2000/svg"
   xmlns:svg="http://www.w3.org/2000/svg">
  <sodipodi:namedview
     id="namedview1"
     pagecolor="#505050"
     bordercolor="#ffffff"
     borderopacity="1"
     inkscape:showpageshadow="0"
     inkscape:pageopacity="0"
     inkscape:pagecheckerboard="1"
     inkscape:deskcolor="#505050"
     inkscape:document-units="mm"
     inkscape:zoom="0.70911897"
     inkscape:cx="509.78752"
     inkscape:cy="458.3152"
     inkscape:window-width="1920"
     inkscape:window-height="1008"
     inkscape:window-x="0"
     inkscape:window-y="0"
     inkscape:window-maximized="1"
     inkscape:current-layer="layer1" />
  <defs
     id="defs1" />
  <g
     inkscape:label="Layer 1"
     inkscape:groupmode="layer"
     id="layer1">
    <path
       style="fill:#000000;stroke-width:0.264583"
       d="m 32.125834,92.108533 81.477646,-1.655698 0.19531,-17.415461 10.47784,3.407594 0.65149,8.98538 c 69.15187,-6.115399 59.523,11.327998 103.80921,18.046552 42.27374,6.41325 62.99969,-13.35783 64.56357,-14.78762 1.56387,-1.42979 -10.41872,34.23863 -61.48974,33.43028 -44.47834,-0.704 -22.05237,-15.07327 -106.73874,-12.77921 0,0 -0.62815,-2.0286 0.65441,8.84255 1.54183,13.06886 17.18955,13.49482 17.18955,13.49482 0,0 -27.84752,3.31855 -29.50674,-9.3206 -2.33198,-17.76379 -0.81619,-15.54987 -0.81619,-15.54987 0,0 -21.786447,15.47554 -50.60671,16.09643 C 34.267049,123.50086 32.125834,92.108533 32.125834,92.108533 Z"
       id="path1"
       sodipodi:nodetypes="cccccssscscscsc" />
    <path
       style="fill:#fefefe;fill-opacity:1;stroke-width:0.264583"
       d="m 52.310511,99.745746 42.77129,-0.695222 c 0,0 -7.511868,14.297906 -26.023356,13.360746 C 50.546957,111.47411 52.310511,99.745746 52.310511,99.745746 Z"
       id="path2" />
  </g>
</svg>
